<svg xmlns="http://www.w3.org/2000/svg" xmlns:xlink="http://www.w3.org/1999/xlink" width="500" zoomAndPan="magnify" viewBox="0 0 375 374.999991" height="500" preserveAspectRatio="xMidYMid meet" version="1.0"><defs><g><g id="id1"/></g><clipPath id="id2"><path d="M 24.796875 88.839844 L 95.296875 88.839844 L 95.296875 145.839844 L 24.796875 145.839844 Z M 24.796875 88.839844 " clip-rule="nonzero"/></clipPath></defs><g clip-path="url(#id2)"><path fill="rgb(100%, 85.099792%, 39.219666%)" d="M 91.480469 98.234375 C 93.300781 98.25 94.753906 96.734375 94.726562 94.851562 L 94.6875 92.289062 C 94.660156 90.40625 93.164062 88.867188 91.34375 88.851562 C 89.523438 88.839844 88.070312 90.351562 88.097656 92.238281 L 88.136719 94.796875 C 88.164062 96.679688 89.660156 98.21875 91.480469 98.234375 Z M 95.175781 124.566406 L 95.136719 121.773438 C 95.132812 121.53125 95.117188 121.296875 95.09375 121.0625 L 94.847656 103.046875 C 94.820312 101.1875 93.355469 99.660156 91.566406 99.613281 C 89.71875 99.5625 88.230469 101.160156 88.257812 103.070312 L 88.304688 106.339844 C 88.3125 106.910156 87.871094 107.375 87.316406 107.371094 L 87.289062 107.371094 C 86.765625 107.367188 86.335938 106.925781 86.328125 106.382812 L 86.304688 104.792969 L 86.234375 100.078125 C 86.207031 98.214844 84.746094 96.691406 82.953125 96.640625 C 81.105469 96.589844 79.617188 98.191406 79.644531 100.101562 L 79.714844 104.738281 L 79.761719 108.0625 L 79.890625 117.558594 C 79.894531 117.84375 79.886719 118.132812 79.878906 118.417969 C 79.875 118.539062 79.875 118.660156 79.875 118.785156 L 79.921875 121.894531 C 79.976562 125.503906 77.011719 129.507812 74.011719 129.578125 C 71.050781 129.648438 68.054688 125.820312 68.019531 123.582031 C 68.019531 123.582031 67.933594 118.914062 67.871094 117.75 C 67.859375 117.511719 67.847656 117.269531 67.84375 117.03125 L 67.644531 103.964844 C 67.632812 103.175781 67.359375 102.445312 66.914062 101.859375 C 66.4375 100.578125 65.242188 99.652344 63.851562 99.613281 C 62.003906 99.5625 60.515625 101.160156 60.546875 103.070312 L 60.59375 106.339844 C 60.601562 106.910156 60.160156 107.375 59.605469 107.371094 L 59.578125 107.371094 C 59.054688 107.367188 58.625 106.925781 58.617188 106.382812 L 58.59375 104.792969 L 58.523438 100.078125 C 58.496094 98.214844 57.03125 96.691406 55.242188 96.640625 C 53.394531 96.589844 51.90625 98.191406 51.933594 100.101562 L 52 104.738281 L 52.050781 108.0625 L 52.179688 117.558594 C 52.183594 117.84375 52.175781 118.132812 52.167969 118.417969 C 52.164062 118.539062 52.164062 118.660156 52.164062 118.785156 L 52.210938 121.894531 C 52.265625 125.503906 49.300781 129.507812 46.300781 129.578125 C 43.339844 129.648438 40.34375 125.820312 40.308594 123.582031 C 40.308594 123.582031 40.21875 118.914062 40.160156 117.75 C 40.144531 117.511719 40.136719 117.269531 40.132812 117.03125 L 39.933594 103.964844 C 39.90625 102.105469 38.441406 100.578125 36.648438 100.53125 C 34.800781 100.480469 33.3125 102.078125 33.339844 103.992188 L 33.46875 112.691406 C 33.476562 113.226562 33.066406 113.65625 32.546875 113.652344 C 32.539062 113.652344 32.53125 113.652344 32.523438 113.652344 C 31.960938 113.652344 31.5 113.179688 31.492188 112.597656 L 31.433594 108.644531 C 31.40625 106.78125 29.941406 105.257812 28.152344 105.207031 C 26.300781 105.15625 24.8125 106.757812 24.84375 108.667969 L 25.089844 125.554688 C 25.09375 125.816406 25.128906 126.070312 25.1875 126.316406 C 25.644531 131.882812 27.746094 136.609375 31.332031 140.070312 C 35.152344 143.761719 40.359375 145.738281 46.386719 145.789062 L 46.492188 145.789062 C 51.957031 145.832031 56.730469 144.273438 60.402344 141.261719 C 64.0625 144.1875 68.757812 145.746094 74.097656 145.789062 L 74.203125 145.789062 C 80.242188 145.835938 85.441406 143.925781 89.234375 140.265625 C 93.214844 136.425781 95.273438 130.996094 95.175781 124.566406 Z M 67.515625 95.3125 L 67.476562 92.753906 C 67.449219 90.871094 65.953125 89.332031 64.132812 89.316406 C 62.3125 89.300781 60.859375 90.816406 60.886719 92.699219 L 60.925781 95.261719 C 60.953125 97.144531 62.449219 98.683594 64.269531 98.699219 C 66.089844 98.710938 67.542969 97.199219 67.515625 95.3125 Z M 63.769531 98.234375 C 65.589844 98.25 67.042969 96.734375 67.015625 94.851562 L 66.976562 92.289062 C 66.949219 90.40625 65.453125 88.867188 63.632812 88.851562 C 61.8125 88.839844 60.359375 90.351562 60.386719 92.238281 L 60.421875 94.796875 C 60.453125 96.679688 61.949219 98.21875 63.769531 98.234375 Z M 36.558594 98.699219 C 34.738281 98.683594 33.242188 97.144531 33.214844 95.261719 L 33.175781 92.699219 C 33.148438 90.816406 34.601562 89.300781 36.421875 89.316406 C 38.242188 89.332031 39.738281 90.871094 39.765625 92.753906 L 39.804688 95.3125 C 39.832031 97.199219 38.378906 98.710938 36.558594 98.699219 " fill-opacity="1" fill-rule="nonzero"/></g><g fill="rgb(100%, 95.689392%, 91.758728%)" fill-opacity="1"><g transform="translate(12.138985, 179.299997)"><g><path d="M 28.3125 -13.59375 C 28.3125 -9.03125 27.191406 -5.5625 24.953125 -3.1875 C 22.710938 -0.8125 19.4375 0.375 15.125 0.375 C 10.863281 0.375 7.597656 -0.816406 5.328125 -3.203125 C 3.066406 -5.597656 1.9375 -9.078125 1.9375 -13.640625 C 1.9375 -18.148438 3.0625 -21.59375 5.3125 -23.96875 C 7.570312 -26.351562 10.851562 -27.546875 15.15625 -27.546875 C 19.476562 -27.546875 22.75 -26.363281 24.96875 -24 C 27.195312 -21.644531 28.3125 -18.175781 28.3125 -13.59375 Z M 9.65625 -13.59375 C 9.65625 -8.351562 11.476562 -5.734375 15.125 -5.734375 C 16.976562 -5.734375 18.351562 -6.367188 19.25 -7.640625 C 20.144531 -8.921875 20.59375 -10.90625 20.59375 -13.59375 C 20.59375 -16.3125 20.140625 -18.316406 19.234375 -19.609375 C 18.328125 -20.898438 16.96875 -21.546875 15.15625 -21.546875 C 11.488281 -21.546875 9.65625 -18.894531 9.65625 -13.59375 Z M 9.65625 -13.59375 "/></g></g></g><g fill="rgb(100%, 95.689392%, 91.758728%)" fill-opacity="1"><g transform="translate(42.414008, 179.299997)"><g><path d="M 26 -27.125 L 26 -10.796875 C 26 -7.242188 24.992188 -4.492188 22.984375 -2.546875 C 20.972656 -0.597656 18.070312 0.375 14.28125 0.375 C 10.582031 0.375 7.738281 -0.570312 5.75 -2.46875 C 3.769531 -4.363281 2.78125 -7.082031 2.78125 -10.625 L 2.78125 -27.125 L 10.15625 -27.125 L 10.15625 -11.203125 C 10.15625 -9.285156 10.507812 -7.894531 11.21875 -7.03125 C 11.9375 -6.164062 13 -5.734375 14.40625 -5.734375 C 15.894531 -5.734375 16.976562 -6.160156 17.65625 -7.015625 C 18.332031 -7.878906 18.671875 -9.289062 18.671875 -11.25 L 18.671875 -27.125 Z M 26 -27.125 "/></g></g></g><g fill="rgb(100%, 95.689392%, 91.758728%)" fill-opacity="1"><g transform="translate(71.167858, 179.299997)"><g><path d="M 9.796875 0 L 2.546875 0 L 2.546875 -21.015625 L 9.796875 -21.015625 Z M 2.359375 -26.25 C 2.359375 -27.34375 2.660156 -28.15625 3.265625 -28.6875 C 3.867188 -29.21875 4.847656 -29.484375 6.203125 -29.484375 C 7.546875 -29.484375 8.523438 -29.207031 9.140625 -28.65625 C 9.765625 -28.113281 10.078125 -27.3125 10.078125 -26.25 C 10.078125 -24.125 8.785156 -23.0625 6.203125 -23.0625 C 3.640625 -23.0625 2.359375 -24.125 2.359375 -26.25 Z M 2.359375 -26.25 "/></g></g></g><g fill="rgb(100%, 95.689392%, 91.758728%)" fill-opacity="1"><g transform="translate(83.522739, 179.299997)"><g><path d="M 9.796875 0 L 2.546875 0 L 2.546875 -21.015625 L 9.796875 -21.015625 Z M 2.359375 -26.25 C 2.359375 -27.34375 2.660156 -28.15625 3.265625 -28.6875 C 3.867188 -29.21875 4.847656 -29.484375 6.203125 -29.484375 C 7.546875 -29.484375 8.523438 -29.207031 9.140625 -28.65625 C 9.765625 -28.113281 10.078125 -27.3125 10.078125 -26.25 C 10.078125 -24.125 8.785156 -23.0625 6.203125 -23.0625 C 3.640625 -23.0625 2.359375 -24.125 2.359375 -26.25 Z M 2.359375 -26.25 "/></g></g></g><g fill="rgb(100%, 95.689392%, 91.758728%)" fill-opacity="1"><g transform="translate(95.877619, 179.299997)"><g><path d="M 9.796875 0 L 2.546875 0 L 2.546875 -21.015625 L 9.796875 -21.015625 Z M 2.359375 -26.25 C 2.359375 -27.34375 2.660156 -28.15625 3.265625 -28.6875 C 3.867188 -29.21875 4.847656 -29.484375 6.203125 -29.484375 C 7.546875 -29.484375 8.523438 -29.207031 9.140625 -28.65625 C 9.765625 -28.113281 10.078125 -27.3125 10.078125 -26.25 C 10.078125 -24.125 8.785156 -23.0625 6.203125 -23.0625 C 3.640625 -23.0625 2.359375 -24.125 2.359375 -26.25 Z M 2.359375 -26.25 "/></g></g></g></svg>