<svg xmlns="http://www.w3.org/2000/svg" xmlns:xlink="http://www.w3.org/1999/xlink" width="500" zoomAndPan="magnify" viewBox="0 0 375 374.999991" height="500" preserveAspectRatio="xMidYMid meet" version="1.0"><defs><g><g id="id1"/></g><clipPath id="id2"><path d="M 152.113281 130.546875 L 222.613281 130.546875 L 222.613281 187.546875 L 152.113281 187.546875 Z M 152.113281 130.546875 " clip-rule="nonzero"/></clipPath></defs><g clip-path="url(#id2)"><path fill="rgb(50.588989%, 25.878906%, 33.729553%)" d="M 218.796875 139.941406 C 220.617188 139.957031 222.070312 138.441406 222.042969 136.558594 L 222.007812 133.996094 C 221.976562 132.113281 220.480469 130.574219 218.660156 130.558594 C 216.839844 130.546875 215.386719 132.058594 215.414062 133.945312 L 215.453125 136.503906 C 215.480469 138.386719 216.976562 139.925781 218.796875 139.941406 Z M 222.496094 166.273438 L 222.453125 163.480469 C 222.449219 163.238281 222.433594 163.003906 222.410156 162.769531 L 222.164062 144.753906 C 222.136719 142.894531 220.675781 141.367188 218.882812 141.320312 C 217.035156 141.269531 215.546875 142.867188 215.574219 144.777344 L 215.621094 148.046875 C 215.632812 148.617188 215.1875 149.082031 214.632812 149.078125 L 214.605469 149.078125 C 214.085938 149.074219 213.652344 148.632812 213.644531 148.089844 L 213.621094 146.5 L 213.550781 141.785156 C 213.527344 139.921875 212.0625 138.398438 210.269531 138.347656 C 208.421875 138.296875 206.933594 139.898438 206.960938 141.808594 L 207.03125 146.449219 L 207.078125 149.773438 L 207.210938 159.265625 C 207.214844 159.554688 207.207031 159.839844 207.195312 160.125 C 207.191406 160.246094 207.191406 160.367188 207.195312 160.492188 L 207.238281 163.601562 C 207.296875 167.210938 204.328125 171.214844 201.332031 171.285156 C 198.367188 171.355469 195.371094 167.527344 195.335938 165.289062 C 195.335938 165.289062 195.25 160.621094 195.1875 159.457031 C 195.175781 159.21875 195.164062 158.976562 195.160156 158.738281 L 194.960938 145.671875 C 194.949219 144.882812 194.675781 144.152344 194.230469 143.566406 C 193.753906 142.285156 192.5625 141.359375 191.171875 141.320312 C 189.324219 141.269531 187.835938 142.867188 187.863281 144.777344 L 187.910156 148.046875 C 187.917969 148.617188 187.476562 149.082031 186.921875 149.078125 L 186.894531 149.078125 C 186.371094 149.074219 185.941406 148.632812 185.933594 148.089844 L 185.910156 146.5 L 185.839844 141.785156 C 185.8125 139.921875 184.351562 138.398438 182.558594 138.347656 C 180.710938 138.296875 179.222656 139.898438 179.25 141.808594 L 179.320312 146.449219 L 179.367188 149.773438 L 179.496094 159.265625 C 179.5 159.554688 179.492188 159.839844 179.484375 160.125 C 179.480469 160.246094 179.480469 160.367188 179.480469 160.492188 L 179.527344 163.601562 C 179.582031 167.210938 176.617188 171.214844 173.617188 171.285156 C 170.65625 171.355469 167.660156 167.527344 167.625 165.289062 C 167.625 165.289062 167.539062 160.621094 167.476562 159.457031 C 167.460938 159.21875 167.453125 158.976562 167.449219 158.738281 L 167.25 145.671875 C 167.222656 143.8125 165.757812 142.285156 163.964844 142.238281 C 162.117188 142.1875 160.628906 143.785156 160.660156 145.699219 L 160.785156 154.398438 C 160.792969 154.933594 160.382812 155.363281 159.863281 155.359375 C 159.855469 155.359375 159.847656 155.359375 159.839844 155.359375 C 159.277344 155.359375 158.816406 154.886719 158.808594 154.304688 L 158.75 150.351562 C 158.722656 148.488281 157.257812 146.964844 155.46875 146.917969 C 153.621094 146.863281 152.132812 148.464844 152.160156 150.375 L 152.40625 167.261719 C 152.410156 167.523438 152.445312 167.777344 152.503906 168.023438 C 152.960938 173.589844 155.0625 178.316406 158.648438 181.777344 C 162.472656 185.46875 167.675781 187.445312 173.703125 187.496094 L 173.808594 187.496094 C 179.273438 187.539062 184.050781 185.980469 187.71875 182.96875 C 191.378906 185.894531 196.074219 187.453125 201.417969 187.496094 L 201.519531 187.496094 C 207.558594 187.542969 212.757812 185.632812 216.550781 181.972656 C 220.535156 178.132812 222.589844 172.703125 222.496094 166.273438 Z M 194.832031 137.019531 L 194.796875 134.460938 C 194.765625 132.578125 193.269531 131.039062 191.449219 131.023438 C 189.628906 131.007812 188.175781 132.523438 188.203125 134.40625 L 188.242188 136.96875 C 188.269531 138.851562 189.769531 140.390625 191.589844 140.40625 C 193.40625 140.417969 194.859375 138.90625 194.832031 137.019531 Z M 191.085938 139.941406 C 192.90625 139.957031 194.359375 138.441406 194.332031 136.558594 L 194.292969 133.996094 C 194.265625 132.113281 192.769531 130.574219 190.949219 130.558594 C 189.128906 130.546875 187.675781 132.058594 187.703125 133.945312 L 187.742188 136.503906 C 187.769531 138.386719 189.265625 139.925781 191.085938 139.941406 Z M 163.875 140.40625 C 162.054688 140.390625 160.558594 138.851562 160.53125 136.96875 L 160.492188 134.40625 C 160.464844 132.523438 161.917969 131.007812 163.738281 131.023438 C 165.558594 131.039062 167.054688 132.578125 167.082031 134.460938 L 167.121094 137.019531 C 167.148438 138.90625 165.695312 140.417969 163.875 140.40625 " fill-opacity="1" fill-rule="nonzero"/></g><g fill="rgb(50.588989%, 25.878906%, 33.729553%)" fill-opacity="1"><g transform="translate(139.456051, 224.199991)"><g><path d="M 28.3125 -13.59375 C 28.3125 -9.03125 27.191406 -5.5625 24.953125 -3.1875 C 22.710938 -0.8125 19.4375 0.375 15.125 0.375 C 10.863281 0.375 7.597656 -0.816406 5.328125 -3.203125 C 3.066406 -5.597656 1.9375 -9.078125 1.9375 -13.640625 C 1.9375 -18.148438 3.0625 -21.59375 5.3125 -23.96875 C 7.570312 -26.351562 10.851562 -27.546875 15.15625 -27.546875 C 19.476562 -27.546875 22.75 -26.363281 24.96875 -24 C 27.195312 -21.644531 28.3125 -18.175781 28.3125 -13.59375 Z M 9.65625 -13.59375 C 9.65625 -8.351562 11.476562 -5.734375 15.125 -5.734375 C 16.976562 -5.734375 18.351562 -6.367188 19.25 -7.640625 C 20.144531 -8.921875 20.59375 -10.90625 20.59375 -13.59375 C 20.59375 -16.3125 20.140625 -18.316406 19.234375 -19.609375 C 18.328125 -20.898438 16.96875 -21.546875 15.15625 -21.546875 C 11.488281 -21.546875 9.65625 -18.894531 9.65625 -13.59375 Z M 9.65625 -13.59375 "/></g></g></g><g fill="rgb(50.588989%, 25.878906%, 33.729553%)" fill-opacity="1"><g transform="translate(169.731073, 224.199991)"><g><path d="M 26 -27.125 L 26 -10.796875 C 26 -7.242188 24.992188 -4.492188 22.984375 -2.546875 C 20.972656 -0.597656 18.070312 0.375 14.28125 0.375 C 10.582031 0.375 7.738281 -0.570312 5.75 -2.46875 C 3.769531 -4.363281 2.78125 -7.082031 2.78125 -10.625 L 2.78125 -27.125 L 10.15625 -27.125 L 10.15625 -11.203125 C 10.15625 -9.285156 10.507812 -7.894531 11.21875 -7.03125 C 11.9375 -6.164062 13 -5.734375 14.40625 -5.734375 C 15.894531 -5.734375 16.976562 -6.160156 17.65625 -7.015625 C 18.332031 -7.878906 18.671875 -9.289062 18.671875 -11.25 L 18.671875 -27.125 Z M 26 -27.125 "/></g></g></g><g fill="rgb(50.588989%, 25.878906%, 33.729553%)" fill-opacity="1"><g transform="translate(198.484924, 224.199991)"><g><path d="M 9.796875 0 L 2.546875 0 L 2.546875 -21.015625 L 9.796875 -21.015625 Z M 2.359375 -26.25 C 2.359375 -27.34375 2.660156 -28.15625 3.265625 -28.6875 C 3.867188 -29.21875 4.847656 -29.484375 6.203125 -29.484375 C 7.546875 -29.484375 8.523438 -29.207031 9.140625 -28.65625 C 9.765625 -28.113281 10.078125 -27.3125 10.078125 -26.25 C 10.078125 -24.125 8.785156 -23.0625 6.203125 -23.0625 C 3.640625 -23.0625 2.359375 -24.125 2.359375 -26.25 Z M 2.359375 -26.25 "/></g></g></g><g fill="rgb(50.588989%, 25.878906%, 33.729553%)" fill-opacity="1"><g transform="translate(210.839804, 224.199991)"><g><path d="M 9.796875 0 L 2.546875 0 L 2.546875 -21.015625 L 9.796875 -21.015625 Z M 2.359375 -26.25 C 2.359375 -27.34375 2.660156 -28.15625 3.265625 -28.6875 C 3.867188 -29.21875 4.847656 -29.484375 6.203125 -29.484375 C 7.546875 -29.484375 8.523438 -29.207031 9.140625 -28.65625 C 9.765625 -28.113281 10.078125 -27.3125 10.078125 -26.25 C 10.078125 -24.125 8.785156 -23.0625 6.203125 -23.0625 C 3.640625 -23.0625 2.359375 -24.125 2.359375 -26.25 Z M 2.359375 -26.25 "/></g></g></g><g fill="rgb(50.588989%, 25.878906%, 33.729553%)" fill-opacity="1"><g transform="translate(223.194685, 224.199991)"><g><path d="M 9.796875 0 L 2.546875 0 L 2.546875 -21.015625 L 9.796875 -21.015625 Z M 2.359375 -26.25 C 2.359375 -27.34375 2.660156 -28.15625 3.265625 -28.6875 C 3.867188 -29.21875 4.847656 -29.484375 6.203125 -29.484375 C 7.546875 -29.484375 8.523438 -29.207031 9.140625 -28.65625 C 9.765625 -28.113281 10.078125 -27.3125 10.078125 -26.25 C 10.078125 -24.125 8.785156 -23.0625 6.203125 -23.0625 C 3.640625 -23.0625 2.359375 -24.125 2.359375 -26.25 Z M 2.359375 -26.25 "/></g></g></g></svg>